<?xml version="1.0"?>
<svg version="1.1" xmlns="http://www.w3.org/2000/svg" width="300" height="50" style=""><path fill="#2e042e" d="M29,34.464c0,3.892-3.164,5.992-6.804,5.992c-1.68,0-3.668-0.308-5.348-0.896c-0.364-0.14-0.476-0.308-0.476-0.532c0-0.112,0-0.224,0.056-0.364l0.588-1.82c0.084-0.28,0.224-0.448,0.504-0.448c0.112,0,0.252,0.028,0.42,0.084c1.316,0.476,2.772,0.84,4.172,0.84c1.512,0,3.22-0.728,3.22-2.492c0-1.288-0.952-1.988-2.044-2.52l-3.64-1.82c-1.988-0.98-3.304-2.632-3.304-4.816c0-3.416,3.36-5.292,6.468-5.292c1.848,0,3.388,0.28,5.012,0.98c0.364,0.168,0.56,0.336,0.56,0.56c0,0.112-0.028,0.224-0.084,0.364l-0.672,1.708c-0.112,0.308-0.28,0.42-0.476,0.42c-0.14,0-0.28-0.056-0.448-0.112c-1.148-0.476-2.576-0.868-3.696-0.868c-1.316,0-2.828,0.56-2.828,2.128c0,1.148,1.064,1.82,1.988,2.268l3.108,1.512c2.212,1.064,3.724,2.548,3.724,5.124z M49.566,21.164c0,0.084-0.028,0.168-0.056,0.28l-6.58,18.06c-0.14,0.392-0.448,0.616-0.868,0.616l-1.876,0c-0.532,0-0.784-0.224-0.952-0.7l-6.888-17.892c-0.056-0.112-0.084-0.224-0.084-0.336c0-0.28,0.224-0.448,0.56-0.448l2.464,0c0.588,0,0.868,0.196,1.008,0.588l4.956,13.832l0.084,0l4.676-13.748c0.168-0.504,0.42-0.672,1.064-0.672l1.96,0c0.364,0,0.532,0.168,0.532,0.42z M68.984,38.104c0,0.56-0.14,0.784-0.672,1.064c-1.54,0.784-4.144,1.288-6.272,1.288c-5.824,0-9.128-4.032-9.128-9.968c0-5.852,3.78-10.108,9.492-10.108c1.792,0,3.444,0.308,5.124,1.064c0.308,0.14,0.392,0.308,0.392,0.504c0,0.112-0.056,0.224-0.084,0.336l-0.644,1.68c-0.112,0.28-0.224,0.392-0.42,0.392c-0.112,0-0.252-0.056-0.392-0.112c-0.924-0.392-2.52-0.812-3.808-0.812c-1.512,0-2.968,0.56-3.948,1.596c-1.176,1.232-1.848,3.052-1.848,5.348c0,4.34,2.044,7.056,5.404,7.056c1.148,0,2.408-0.168,3.164-0.476l0-5.348l-2.492,0c-0.392,0-0.616-0.14-0.616-0.616l0-1.708c0-0.448,0.224-0.56,0.644-0.56l5.432,0c0.476,0,0.672,0.14,0.672,0.644l0,8.736z"/><path fill="#e60b51" d="M90.798,39.448c0,0.504-0.252,0.672-0.672,0.672l-9.968,0c-0.504,0-0.728-0.168-0.728-0.784l0-17.892c0-0.448,0.224-0.7,0.672-0.7l2.24,0c0.504,0,0.7,0.196,0.7,0.728l0,15.652l7.084,0c0.476,0,0.672,0.224,0.672,0.644l0,1.68z M107.304,33.316c0,4.032-2.464,7.14-6.832,7.14c-4.564,0-6.664-3.08-6.664-7.168c0-4.032,2.464-7.112,6.832-7.112c4.564,0,6.664,3.024,6.664,7.14z M103.804,33.316c0-2.296-0.728-4.48-3.192-4.48c-2.492,0-3.304,2.156-3.304,4.396c0,2.296,0.7,4.564,3.192,4.564c2.464,0,3.304-2.184,3.304-4.48z M123.782,39.196c0,4.536-1.932,7.056-6.636,7.056c-1.372,0-2.8-0.28-4.144-0.868c-0.308-0.14-0.448-0.308-0.448-0.56c0-0.14,0.056-0.252,0.084-0.364l0.392-1.232c0.112-0.308,0.224-0.504,0.42-0.504c0.14,0,0.28,0.056,0.42,0.112c1.008,0.42,2.156,0.728,3.136,0.728c2.8,0,3.388-1.484,3.388-3.724l0-1.12c-0.84,0.812-2.408,1.428-3.64,1.428c-1.736,0-3.136-0.56-4.116-1.596c-1.176-1.204-1.764-3.024-1.764-5.068c0-3.752,2.184-7.28,6.244-7.28c0.672,0,1.372,0.168,2.016,0.448c0.532,0.224,1.092,0.644,1.428,1.12l0.056-0.728c0.028-0.364,0.224-0.504,0.644-0.504l1.848,0c0.504,0,0.672,0.196,0.672,0.672l0,11.984z M120.394,36.06l0-5.768c-0.56-0.756-1.652-1.372-2.716-1.372c-0.868,0-1.568,0.336-2.072,0.812c-0.868,0.84-1.204,2.268-1.204,3.556c0,1.232,0.28,2.548,1.12,3.36c0.504,0.504,1.232,0.756,1.988,0.756c1.092,0,2.324-0.644,2.884-1.344z M141.66,33.316c0,4.032-2.464,7.14-6.832,7.14c-4.564,0-6.664-3.08-6.664-7.168c0-4.032,2.464-7.112,6.832-7.112c4.564,0,6.664,3.024,6.664,7.14z M138.16,33.316c0-2.296-0.728-4.48-3.192-4.48c-2.492,0-3.304,2.156-3.304,4.396c0,2.296,0.7,4.564,3.192,4.564c2.464,0,3.304-2.184,3.304-4.48z M175.176,39.364c0.028,0.476-0.112,0.756-0.644,0.756l-2.268,0c-0.588,0-0.7-0.28-0.728-0.924l-0.392-11.368l-0.056,0l-4.76,11.788c-0.168,0.448-0.448,0.504-0.756,0.504l-0.98,0c-0.42,0-0.672-0.084-0.868-0.532l-5.292-11.76l-0.056,0l-0.252,11.592c0,0.616-0.252,0.7-0.756,0.7l-1.904,0c-0.532,0-0.756-0.196-0.728-0.728l0.7-17.892c0.028-0.588,0.224-0.756,0.672-0.756l1.652,0c0.56,0,0.756,0.196,0.952,0.616l6.468,13.832l0.056,0l5.908-13.832c0.168-0.42,0.392-0.616,0.896-0.616l1.652,0c0.448,0,0.616,0.168,0.644,0.616z M193.782,39.588c0,0.336-0.224,0.532-0.56,0.532l-1.344,0c-1.456,0-2.1-0.7-2.296-1.652l-0.056,0c-0.7,1.036-2.52,1.988-4.06,1.988c-3.948,0-5.74-3.248-5.74-6.888c0-4.844,2.912-7.392,6.048-7.392c1.484,0,2.884,0.672,3.584,1.624l0.056-0.756c0.028-0.308,0.252-0.504,0.588-0.504l1.96,0c0.364,0,0.588,0.196,0.588,0.616l0,9.716c0,0.392,0.056,0.672,0.168,0.812c0.084,0.084,0.196,0.112,0.336,0.112l0.224,0c0.336,0,0.504,0.112,0.504,0.476l0,1.316z M189.162,35.78l0-5.404c-0.56-0.812-1.708-1.428-2.772-1.428c-1.708,0-3.164,1.456-3.164,4.396c0,2.352,0.896,4.34,2.968,4.34c1.372,0,2.548-1.036,2.968-1.904z M209.224,39.784c0,0.252-0.252,0.336-0.532,0.336l-2.408,0c-0.504,0-0.84-0.14-1.12-0.588l-3.584-5.88l-0.308,0.28l0,3.892l0,1.596c0,0.476-0.196,0.7-0.644,0.7l-2.1,0c-0.42,0-0.644-0.252-0.644-0.672l0-18.368c0-0.448,0.168-0.616,0.588-0.672l2.044-0.28c0.084,0,0.14-0.028,0.224-0.028c0.336,0,0.532,0.168,0.532,0.644l0,4.704l0,6.524l0.056,0l3.668-5.04c0.224-0.308,0.392-0.392,0.756-0.392l2.492,0c0.224,0,0.364,0.112,0.364,0.28c0,0.084-0.028,0.196-0.112,0.308l-4.004,5.04l4.536,7.084c0.112,0.168,0.196,0.364,0.196,0.532z M224.974,33.288c0,0.672-0.224,0.812-0.924,0.812l-8.204,0c0.224,2.156,1.792,3.64,4.004,3.64c1.176,0,2.408-0.28,3.444-0.672c0.112-0.028,0.196-0.084,0.308-0.084c0.196,0,0.336,0.112,0.392,0.336l0.392,1.428c0.028,0.14,0.056,0.252,0.056,0.336c0,0.196-0.112,0.336-0.448,0.476c-1.372,0.616-3.248,0.896-4.704,0.896c-4.396,0-7-2.8-7-7.168c0-4.2,2.772-7.112,6.944-7.112c1.708,0,3.108,0.644,4.088,1.68c1.288,1.344,1.652,3.108,1.652,5.012l0,0.42z M221.642,31.888l0-0.308c-0.056-1.456-0.896-2.8-2.604-2.8c-1.82,0-2.912,1.456-3.136,3.108l5.74,0z M236.86,26.652c0,0.084,0,0.168-0.028,0.252l-0.308,1.988c-0.028,0.252-0.168,0.364-0.392,0.364l-0.112,0c-0.224-0.056-0.504-0.084-0.756-0.084c-0.952,0-1.988,0.504-2.688,1.344l0,8.904c0,0.448-0.196,0.7-0.672,0.7l-2.044,0c-0.448,0-0.672-0.224-0.672-0.7l0-8.736l0-3.444c0-0.56,0.28-0.7,0.7-0.7l1.792,0c0.448,0,0.7,0.14,0.7,0.532l0.028,0.896c0.868-1.092,1.82-1.792,3.388-1.792c0.224,0,0.532,0.056,0.784,0.112c0.196,0.056,0.28,0.14,0.28,0.364z"/></svg>
