<?xml version="1.0"?>
<svg version="1.1" xmlns="http://www.w3.org/2000/svg" width="512px" height="512px" style="border: dashed 2px #aaa"><path fill="#31f2f5" d="M31.662,257.62l0,5.67c0,4.752-1.134,7.722-4.968,9.18c3.186,1.242,4.968,3.78,4.968,7.668l0,9.342c0,4.32,1.404,5.508,6.534,5.508l0,5.562l-3.618,0c-7.236,0-9.828-3.294-9.828-11.448l0-8.316c0-3.24-1.08-5.616-5.13-5.616l0-5.4c4.05,0,5.13-2.376,5.13-5.616l0-7.614c0-7.074,3.348-9.99,9.828-9.99l3.618,0l0,5.562c-5.13,0-6.534,1.188-6.534,5.508z M52.42554,276.682l0.81,4.536s2.16,1.134,5.292,1.134c3.456,0,6.534-1.512,6.534-4.374c0-6.318-18.252-3.51-18.252-16.848c0-7.452,5.886-11.448,13.716-11.448c6.102,0,11.88,2.16,11.88,2.16l-0.27,9.828l-4.968,0l-1.35-4.59s-2.43-0.81-4.752-0.81c-3.834,0-5.724,1.674-5.724,3.834c0,6.264,18.198,3.78,18.198,16.47c0,8.1-6.264,12.528-14.58,12.528c-6.102,0-12.042-2.052-12.042-2.052l0-10.368l5.508,0z M94.24908,256.81l0,17.01c0,6.21,1.782,8.64,7.074,8.64c5.724,0,6.966-3.078,6.966-9.45l0-16.2l-4.212-1.62l0-4.59l16.632-0.27l0,4.86l-4.05,1.62l0,16.2c0,10.422-3.996,16.038-15.606,16.038c-10.854,0-15.174-4.806-15.174-15.228l0-17.01l-3.996-1.62l0-4.59l16.578-0.27l0,4.86z M128.24262,288.4l0-4.59l4.05-1.62l0-25.38l-4.05-1.62l0-4.59l13.932-0.27l8.1,17.982l8.478-17.712l12.96-0.27l0,4.86l-3.888,1.62l0,25.38l4.05,1.62l0,4.59l-16.092,0l0-4.59l4.212-1.62l0-20.304l-1.458,3.564l-6.102,12.69l-5.832,0.27l-6.21-12.798l-0.918-2.808l0,19.386l4.158,1.62l0,4.59l-15.39,0z M179.67816,288.4l0-4.59l4.05-1.62l0-25.38l-4.05-1.62l0-4.59l16.47-0.27l0,4.86l-4.05,1.62l0,25.38l4.05,1.62l0,4.59l-16.47,0z M214.0497,282.19l0-25.38l-5.13,0l-1.35,5.13l-4.968,0l0-11.61l31.32,0l0,11.61l-5.022,0l-1.35-5.13l-5.13,0l0,25.38l5.13,1.62l0,4.59l-18.63,0l0-4.59z M256.54878,288.4l0-4.59l4.05-1.62l0-25.488l-4.05-1.62l0-4.482l16.47-0.27l0,4.752l-4.05,1.62l0,9.288l3.672,0l9.018-15.39l9.99-0.27l0,4.752l-5.13,1.512l-7.074,11.772l10.044,13.824l4.05,1.62l0,4.59l-16.47,0l0-4.59l3.24-1.62l-7.398-10.26l-3.942,0l0,10.26l4.05,1.62l0,4.59l-16.47,0z M311.54832,256.81l0,17.01c0,6.21,1.782,8.64,7.074,8.64c5.724,0,6.966-3.078,6.966-9.45l0-16.2l-4.212-1.62l0-4.59l16.632-0.27l0,4.86l-4.05,1.62l0,16.2c0,10.422-3.996,16.038-15.606,16.038c-10.854,0-15.174-4.806-15.174-15.228l0-17.01l-3.996-1.62l0-4.59l16.578-0.27l0,4.86z M345.54186,288.4l0-4.59l4.05-1.62l0-25.38l-4.05-1.62l0-4.59l13.932-0.27l8.1,17.982l8.478-17.712l12.96-0.27l0,4.86l-3.888,1.62l0,25.38l4.05,1.62l0,4.59l-16.092,0l0-4.59l4.212-1.62l0-20.304l-1.458,3.564l-6.102,12.69l-5.832,0.27l-6.21-12.798l-0.918-2.808l0,19.386l4.158,1.62l0,4.59l-15.39,0z M434.9394,283.81l0,4.59l-17.172,0l0-4.59l4.05-1.458l-1.296-3.942l-11.988,0l-1.35,3.888l4.212,1.512l0,4.59l-16.308,0l0-4.59l3.942-1.512l11.88-31.806l8.64-0.162l11.61,31.968z M418.7394,272.632l-4.05-12.798l-4.266,12.798l8.316,0z M440.85294,288.4l0-4.59l4.05-1.62l0-25.38l-4.05-1.62l0-4.59l12.42-0.27l4.104,0c8.856,0,14.04,3.672,14.04,11.016c0,5.076-2.43,8.37-6.102,10.206c0.594,0.702,1.404,1.728,2.268,3.51l3.618,7.398l3.672,1.35l0,4.59l-9.99,0l-4.536-9.99c-1.836-4.104-2.322-4.968-5.184-4.968l-1.89,0l0,8.748l3.888,1.62l0,4.59l-16.308,0z M453.27294,267.772l3.078,0c4.266,0,6.75-2.052,6.75-5.67c0-3.078-2.052-5.292-5.4-5.292l-4.428,0l0,10.962z M487.80648,264.856l0-7.236c0-4.32-1.35-5.508-6.48-5.508l0-5.562l3.618,0c6.588,0,9.828,2.97,9.828,9.99l0,7.614c0,3.24,1.08,5.616,5.13,5.616l0,5.4c-4.05,0-5.13,2.376-5.13,5.616l0,8.316c0,8.154-2.7,11.448-9.882,11.448l-3.564,0l0-5.562c5.13,0,6.48-1.188,6.48-5.508l0-9.342c0-3.888,1.836-6.426,5.022-7.668c-3.186-1.242-5.022-3.726-5.022-7.614z"/><path fill="#" d=""/></svg>
