<?xml version="1.0" encoding="UTF-8"?>
<svg version="1.1" xmlns="http://www.w3.org/2000/svg" width="170" height="32">
<path d="M0 0 C56.1 0 112.2 0 170 0 C170 10.56 170 21.12 170 32 C113.9 32 57.8 32 0 32 C0 21.44 0 10.88 0 0 Z " fill="#FDFEFE" transform="translate(0,0)"/>
<path d="M0 0 C2.31 0 4.62 0 7 0 C7.66 2.31 8.32 4.62 9 7 C9.99 4.69 10.98 2.38 12 0 C14.31 0 16.62 0 19 0 C19.33 3.96 19.66 7.92 20 12 C21.32 8.04 22.64 4.08 24 0 C25.98 0 27.96 0 30 0 C31.32 3.63 32.64 7.26 34 11 C34.33 7.37 34.66 3.74 35 0 C43.21766784 -0.36254417 43.21766784 -0.36254417 46.5625 1.1875 C48 3 48 3 48.3125 5.5 C48 8 48 8 47 11 C48.00499132 13.62843884 48.44807371 14.72403685 51 16 C50.85957123 14.35369672 50.71250671 12.70795821 50.5625 11.0625 C50.48128906 10.14597656 50.40007812 9.22945312 50.31640625 8.28515625 C50.23955024 6.03840268 50.23955024 6.03840268 49 5 C48.95936168 3.33382885 48.957279 1.66611905 49 0 C52.875 0.875 52.875 0.875 54 2 C54.04092937 4.33297433 54.04241723 6.66705225 54 9 C54.66 9 55.32 9 56 9 C55.855625 9.680625 55.71125 10.36125 55.5625 11.0625 C54.93054091 14.36273082 54.45686059 17.67144426 54 21 C52.35 21 50.7 21 49 21 C49 20.01 49 19.02 49 18 C48.236875 18.0825 47.47375 18.165 46.6875 18.25 C44 18 44 18 42.1875 16 C41.5996875 15.01 41.5996875 15.01 41 14 C40.34 15.32 39.68 16.64 39 18 C36.03 18 33.06 18 30 18 C29.67 17.01 29.34 16.02 29 15 C27.02463255 15.34786708 27.02463255 15.34786708 25 16 C24.67 16.66 24.34 17.32 24 18 C20.7 18 17.4 18 14 18 C13.67 16.68 13.34 15.36 13 14 C12.67 15.32 12.34 16.64 12 18 C10.35 18 8.7 18 7 18 C6.67 17.01 6.34 16.02 6 15 C5.67 15.99 5.34 16.98 5 18 C3.35 18 1.7 18 0 18 C0 12.06 0 6.12 0 0 Z " fill="#65D0D1" transform="translate(111,8)"/>
<path d="M0 0 C1.65 0 3.3 0 5 0 C5 4.29 5 8.58 5 13 C5.99 12.34 6.98 11.68 8 11 C8.58348752 8.3443272 8.58348752 8.3443272 8.6875 5.375 C8.8421875 2.714375 8.8421875 2.714375 9 0 C13.29 0 17.58 0 22 0 C22.66 1.65 23.32 3.3 24 5 C24.33 5.33 24.66 5.66 25 6 C25.66 4.02 26.32 2.04 27 0 C29.31 0 31.62 0 34 0 C34 5.94 34 11.88 34 18 C32.35 18 30.7 18 29 18 C28.67 17.34 28.34 16.68 28 16 C27.67 16.66 27.34 17.32 27 18 C25.35 18 23.7 18 22 18 C21.67 17.34 21.34 16.68 21 16 C20.67 16.66 20.34 17.32 20 18 C18.35 18 16.7 18 15 18 C14.67 16.35 14.34 14.7 14 13 C13.71125 13.639375 13.4225 14.27875 13.125 14.9375 C12 17 12 17 10 18 C3.7511484 18.45446193 3.7511484 18.45446193 1.2890625 16.96484375 C-0.70205843 13.92989276 -0.31486354 10.81009863 -0.1875 7.3125 C-0.17396484 6.61060547 -0.16042969 5.90871094 -0.14648438 5.18554688 C-0.11120182 3.45670171 -0.05739583 1.72825235 0 0 Z " fill="#66D3D4" transform="translate(21,8)"/>
<path d="M0 0 C8.21766784 -0.36254417 8.21766784 -0.36254417 11.5625 1.1875 C13 3 13 3 13.3125 5.5 C13 8 13 8 12 11 C13.00499132 13.62843884 13.44807371 14.72403685 16 16 C15.85957123 14.35369672 15.71250671 12.70795821 15.5625 11.0625 C15.48128906 10.14597656 15.40007812 9.22945312 15.31640625 8.28515625 C15.23955024 6.03840268 15.23955024 6.03840268 14 5 C13.95936168 3.33382885 13.957279 1.66611905 14 0 C17.875 0.875 17.875 0.875 19 2 C19.04092937 4.33297433 19.04241723 6.66705225 19 9 C19.66 9 20.32 9 21 9 C20.855625 9.680625 20.71125 10.36125 20.5625 11.0625 C19.93054091 14.36273082 19.45686059 17.67144426 19 21 C17.35 21 15.7 21 14 21 C14 20.01 14 19.02 14 18 C13.236875 18.0825 12.47375 18.165 11.6875 18.25 C9 18 9 18 7.1875 16 C6.795625 15.34 6.40375 14.68 6 14 C5.34 15.32 4.68 16.64 4 18 C1.03 18 -1.94 18 -5 18 C-5 17.67 -5 17.34 -5 17 C-3.35 17 -1.7 17 0 17 C0 11.39 0 5.78 0 0 Z " fill="#6AD5D7" transform="translate(146,8)"/>
<path d="M0 0 C2.475 0.495 2.475 0.495 5 1 C5.66 1 6.32 1 7 1 C7.33 0.67 7.66 0.34 8 0 C9.66617115 -0.04063832 11.33388095 -0.042721 13 0 C12.25 4.75 12.25 4.75 10 7 C10.9416752 10.07413358 10.9416752 10.07413358 12.5625 13.0625 C14 16 14 16 14 18 C11.125 18.125 11.125 18.125 8 18 C7.34 17.34 6.68 16.68 6 16 C5.34 16.66 4.68 17.32 4 18 C2.68 18 1.36 18 0 18 C0 12.06 0 6.12 0 0 Z " fill="#62CDCF" transform="translate(82,8)"/>
<path d="M0 0 C1.65 0 3.3 0 5 0 C5 4.29 5 8.58 5 13 C5.99 12.34 6.98 11.68 8 11 C8.58348752 8.3443272 8.58348752 8.3443272 8.6875 5.375 C8.75324219 4.37210938 8.81898437 3.36921875 8.88671875 2.3359375 C8.92410156 1.56507812 8.96148437 0.79421875 9 0 C10.65 0 12.3 0 14 0 C14.05418326 2.08304538 14.09287551 4.16649768 14.125 6.25 C14.14820313 7.41015625 14.17140625 8.5703125 14.1953125 9.765625 C14.00925052 12.84681133 13.71695953 14.4785909 12 17 C8.95016004 18.52491998 6.3576631 18.23562548 3 18 C1.2890625 16.96484375 1.2890625 16.96484375 0 15 C-0.2172101 12.35003674 -0.28351554 9.94923442 -0.1875 7.3125 C-0.17396484 6.61060547 -0.16042969 5.90871094 -0.14648438 5.18554688 C-0.11120182 3.45670171 -0.05739583 1.72825235 0 0 Z " fill="#63C9CB" transform="translate(21,8)"/>
<path d="M0 0 C1.65 0 3.3 0 5 0 C5 4.29 5 8.58 5 13 C5.66 12.67 6.32 12.34 7 12 C7.46898963 9.1840151 7.46898963 9.1840151 7.625 5.9375 C7.73714844 4.28041016 7.73714844 4.28041016 7.8515625 2.58984375 C7.90054688 1.73519531 7.94953125 0.88054688 8 0 C9.65 0 11.3 0 13 0 C13.05397335 2.4377963 13.09365616 4.87439685 13.125 7.3125 C13.15013672 8.34793945 13.15013672 8.34793945 13.17578125 9.40429688 C13.21217794 13.17135396 13.14378864 14.78431704 11 18 C8.90625 18.36328125 8.90625 18.36328125 6.5 18.3125 C5.7059375 18.30863281 4.911875 18.30476563 4.09375 18.30078125 C2 18 2 18 0 16 C-0.14507695 13.25514407 -0.18652423 10.61519457 -0.125 7.875 C-0.11146484 6.74384766 -0.11146484 6.74384766 -0.09765625 5.58984375 C-0.0740687 3.72642746 -0.03819719 1.86317407 0 0 Z " fill="#5FC6C7" transform="translate(96,8)"/>
<path d="M0 0 C1.98 0 3.96 0 6 0 C6.83919398 2.26882087 7.67151724 4.53977027 8.5 6.8125 C8.73847656 7.45509766 8.97695312 8.09769531 9.22265625 8.75976562 C10.27068746 11.64933739 11 13.90076061 11 17 C9.02 17 7.04 17 5 17 C5 16.34 5 15.68 5 15 C4.0925 15.33 3.185 15.66 2.25 16 C-1 17 -1 17 -5 17 C-5.33 16.01 -5.66 15.02 -6 14 C-5.34 14 -4.68 14 -4 14 C-3.79503906 13.15695313 -3.59007812 12.31390625 -3.37890625 11.4453125 C-2.97478516 9.80175781 -2.97478516 9.80175781 -2.5625 8.125 C-2.29566406 7.03445312 -2.02882812 5.94390625 -1.75390625 4.8203125 C-1 2 -1 2 0 0 Z " fill="#6FE0E2" transform="translate(135,8)"/>
<path d="M0 0 C2.01822917 0.06510417 4.03645833 0.13020833 6.0546875 0.1953125 C6.0546875 3.1953125 6.0546875 6.1953125 6.0546875 9.1953125 C6.2403125 9.9996875 6.4259375 10.8040625 6.6171875 11.6328125 C7.0546875 14.1953125 7.0546875 14.1953125 6.0546875 17.1953125 C2.56084471 18.35992676 -0.28186639 18.33099569 -3.9453125 18.1953125 C-4.9453125 17.1953125 -4.9453125 17.1953125 -5.0078125 14.6328125 C-4.9871875 13.8284375 -4.9665625 13.0240625 -4.9453125 12.1953125 C-3.9553125 12.1953125 -2.9653125 12.1953125 -1.9453125 12.1953125 C-2.4609375 11.8446875 -2.9765625 11.4940625 -3.5078125 11.1328125 C-4.9453125 9.1953125 -4.9453125 9.1953125 -4.7578125 5.6328125 C-3.50971041 0.35238056 -3.50971041 0.35238056 0 0 Z " fill="#68CFD0" transform="translate(12.9453125,7.8046875)"/>
<path d="M0 0 C3.96 0 7.92 0 12 0 C12.33 1.65 12.66 3.3 13 5 C11.68 5 10.36 5 9 5 C9 8.96 9 12.92 9 17 C7.35 17.33 5.7 17.66 4 18 C4 13.71 4 9.42 4 5 C2.68 5 1.36 5 0 5 C0 3.35 0 1.7 0 0 Z " fill="#67CDCE" transform="translate(62,8)"/>
<path d="M0 0 C1.32 0 2.64 0 4 0 C3.83757813 0.69996094 3.67515625 1.39992188 3.5078125 2.12109375 C2.97177925 5.15998993 2.86720233 7.97852282 2.875 11.0625 C2.87242187 12.08472656 2.86984375 13.10695313 2.8671875 14.16015625 C2.98206462 16.61649932 3.29224959 18.65768316 4 21 C2.33388095 21.042721 0.66617115 21.04063832 -1 21 C-2.93171878 19.06828122 -2.64745192 15.60004211 -3 13 C-3.30550781 12.02546875 -3.30550781 12.02546875 -3.6171875 11.03125 C-4.09502254 8.49579879 -3.59423087 7.18222501 -2.625 4.8125 C-2.34914062 4.11769531 -2.07328125 3.42289063 -1.7890625 2.70703125 C-1 1 -1 1 0 0 Z " fill="#5DC2C3" transform="translate(4,8)"/>
<path d="M0 0 C3.875 0.875 3.875 0.875 5 2 C5.04092937 4.33297433 5.04241723 6.66705225 5 9 C5.66 9 6.32 9 7 9 C6.855625 9.680625 6.71125 10.36125 6.5625 11.0625 C5.93054091 14.36273082 5.45686059 17.67144426 5 21 C3.35 21 1.7 21 0 21 C0 20.01 0 19.02 0 18 C-1.65 18 -3.3 18 -5 18 C-2.35261084 16.5393715 -1.10551666 16 2 16 C1.85957123 14.35369672 1.71250671 12.70795821 1.5625 11.0625 C1.48128906 10.14597656 1.40007812 9.22945312 1.31640625 8.28515625 C1.23955024 6.03840268 1.23955024 6.03840268 0 5 C-0.04063832 3.33382885 -0.042721 1.66611905 0 0 Z " fill="#58B6B8" transform="translate(160,8)"/>
<path d="M0 0 C1.32 0 2.64 0 4 0 C4 5.94 4 11.88 4 18 C2.68 18 1.36 18 0 18 C0 12.06 0 6.12 0 0 Z " fill="#61BCBD" transform="translate(57,8)"/>
</svg>
